<?xml version="1.0" standalone="no"?>
<!DOCTYPE svg PUBLIC "-//W3C//DTD SVG 20010904//EN"
 "http://www.w3.org/TR/2001/REC-SVG-20010904/DTD/svg10.dtd">
<svg version="1.0" xmlns="http://www.w3.org/2000/svg"
 width="700.000000pt" height="700.000000pt" viewBox="0 0 700.000000 700.000000"
 preserveAspectRatio="xMidYMid meet">
<metadata>
Created by potrace 1.14, written by Peter Selinger 2001-2017
</metadata>
<g transform="translate(0.000000,700.000000) scale(0.100000,-0.100000)"
fill="#000000" stroke="none">
<path d="M2710 6412 c-152 -20 -296 -142 -356 -302 -15 -39 -17 -97 -19 -448
-2 -222 -5 -405 -7 -407 -2 -3 -312 -5 -689 -5 -679 -1 -685 -1 -749 -23 -144
-49 -262 -177 -295 -321 -9 -38 -11 -535 -10 -2011 l1 -1960 23 -58 c25 -64
75 -136 130 -185 37 -33 136 -87 181 -99 40 -10 5079 -12 5135 -2 149 27 290
151 341 299 18 53 19 123 20 2005 0 1088 -4 1971 -8 1999 -26 143 -138 270
-293 334 -36 15 -119 18 -744 22 l-704 5 -2 405 c-1 242 -6 417 -12 435 -44
131 -153 246 -281 296 l-57 23 -790 1 c-434 0 -801 -1 -815 -3z m1520 -797 l0
-365 -730 0 -730 0 0 365 0 365 730 0 730 0 0 -365z m1748 -2699 l2 -1896
-2480 0 -2480 0 0 1894 c0 1254 3 1895 10 1898 5 2 1120 2 2477 1 l2468 -1 3
-1896z"/>
<path d="M3284 3909 c-2 -4 -4 -191 -3 -415 0 -225 0 -419 -1 -431 l0 -23
-332 1 c-183 0 -380 0 -438 -1 l-105 0 2 -212 c1 -117 2 -216 2 -219 1 -3 195
-5 432 -5 237 1 433 -2 435 -6 3 -5 5 -201 5 -438 l0 -430 219 0 220 0 0 432
c0 254 3 434 9 437 5 3 201 6 435 5 234 0 426 2 427 5 0 3 2 102 2 219 l2 212
-437 0 c-344 0 -438 3 -438 13 -1 6 -1 203 0 437 l0 425 -216 0 c-119 0 -217
-3 -220 -6z"/>
</g>
</svg>
